# xmcd CD database file
#
# Track frame offsets:
#	150
#	20572
#	40947
#
# Disc length: 1041 seconds
#
# Revision: 0
# Processed by: cddbd v1.5PL3 Copyright (c) Steve Scherf et al.
# Submitted via: CDex 1.50
#
DISCID=1d040f03
DTITLE=小沢健二 - 春にして君を想う
DYEAR=1900
DGENRE=Pop
TTITLE0=春にして君を想う
TTITLE1=春にして君を想う（instrumental）
TTITLE2=ある光(JFK 8'16'' Full Length)
EXTD=
EXTT0=
EXTT1=
EXTT2=
PLAYORDER=
